<svg id="logo-svg" xmlns="http://www.w3.org/2000/svg" xmlns:xlink="http://www.w3.org/1999/xlink" viewBox="0 0 890 199.8" shape-rendering="geometricPrecision" text-rendering="geometricPrecision" fill="rgb(255,255,255)" stroke="none" stroke-width="1">
    
    <style>
        <![CDATA[#star_1 {animation: star_1_animate 2100ms linear infinite normal forwards}@keyframes star_1_animate { 0% {transform: translate(20.723729px,25.5px) scale(1.420732,1.420732)} 47% {transform: translate(20.723729px,25.5px) scale(0.142857,0.142857)} 95% {transform: translate(20.723729px,25.5px) scale(1.42,1.42)} 100% {transform: translate(20.723729px,25.5px) scale(1.42,1.42)}} #star_2 {animation: star_2_animate 1900ms linear infinite normal forwards}@keyframes star_2_animate { 0% {transform: translate(188px,145.996064px) scale(1.61077,1.61077)} 37% {transform: translate(188px,145.996064px) scale(0.125691,0.125691)} 95% {transform: translate(188px,145.996064px) scale(1.61,1.61)} 100% {transform: translate(188px,145.996064px) scale(1.61,1.61)}} #star_3 {animation: star_3_animate 2000ms linear infinite normal forwards}@keyframes star_3_animate { 0% {transform: translate(830.97033px,20px) scale(1.903466,1.903466)} 40% {transform: translate(830.97033px,20px) scale(0.214285,0.214285)} 80% {transform: translate(830.97033px,20px) scale(1.9,1.9)} 100% {transform: translate(830.97033px,20px) scale(1.9,1.9)}}]]>
    </style>

    <g id="logo-strokes" transform="matrix(1 0 0 1 19.056767 19.972786)" >
        <path
            id="stroke-disney-d"
            d="M222.568941,95.102351C223.330086,85.305984,223.483318,74.89289,223.636094,67.084668C210.491408,68.004277,193.831044,70.452455,193.984276,75.045929C194.137052,79.94594,206.364625,89.133347,222.568941,95.102351ZM311.984548,71.6786C312.596565,92.041101,295.018631,111.028529,260.933566,112.101177C252.068439,112.254674,243.66164,111.181569,236.020548,109.189769C235.867315,114.08978,236.173324,116.844494,229.140144,116.997534C224.860128,117.15103,223.177309,110.109377,222.568941,104.442797C201.931377,95.255391,189.551484,80.252477,189.398708,74.432857C189.245476,65.705483,204.991007,58.357751,223.636094,55.445886C223.942103,48.097697,225.166137,29.722884,228.986911,29.569844C230.516954,29.569844,233.725711,33.094325,234.94929,38.603754C236.020548,43.503765,236.173324,52.537675,236.173324,54.223395L237.546486,54.223395C263.683538,53.457283,279.276749,61.572041,279.582757,71.218567C279.735534,78.720252,273.161138,82.547615,269.645916,82.701112C266.131151,82.854151,262.004824,80.865549,262.004824,79.792444C262.004824,77.800644,269.49314,77.341068,269.340364,73.973281C269.187132,68.920231,248.553217,66.778132,235.714539,66.625092C235.714539,70.912031,235.561307,76.118578,235.714539,79.639404C235.867315,83.007648,236.020548,91.734565,236.173324,99.086865C241.978821,100.308898,247.941656,100.921514,253.751258,100.768474C267.504313,100.308898,298.992638,95.408888,298.227389,71.6786C297.313011,38.603754,232.042892,8.134238,197.039801,9.206886C183.286746,9.666919,175.029532,11.045646,175.029532,12.421633C175.029532,13.341242,181.756703,13.647321,181.756703,15.486538C181.909936,17.321187,177.935929,17.627723,175.641549,17.627723C171.361534,17.78122,168.152776,15.793075,168,13.187745C168,11.352183,172.126783,5.226484,174.727172,4.306875C176.406342,3.693803,184.965917,0.479512,199.181861,0.01948C204.532222,-0.13356,213.551037,0.632552,221.039354,1.705657C265.060349,8.287277,311.372531,41.821699,311.984548,71.6786L311.984548,71.6786Z"
        />
        <path
            id="stroke-disney-i_base"
            d="M328.939413,88.395118C329.093874,93.39557,328.939413,98.244575,328.630028,100.515371C328.320644,102.790687,327.39664,103.848101,323.533714,104C319.6671,104,317.814482,101.728752,317.505097,98.396474C317.195713,95.060127,316.886328,85.517631,317.041251,80.668174C317.195713,75.818716,317.505097,66.727396,318.123866,60.968807C318.742635,55.21293,320.285408,54,322.141715,54C324.303256,54,327.551102,59.30425,327.706025,62.636528C327.860486,65.969259,328.630028,83.394213,328.939413,88.395118"
        />
        <path
            id="stroke-disney-i_dot"
            d="M328.140119,38.292349C341.143255,37.839247,347.037613,28.413892,346.886487,25.218587C346.73897,23.304125,346.022589,21.38921,343.225182,21.411888C343.092101,21.407806,342.951802,21.411888,342.804286,21.418692C332.525024,21.723028,322.695981,35.100673,320.728639,37.839247C321.127431,37.895488,321.529831,37.947193,321.93945,37.99527C321.957495,37.99527,321.972382,37.998898,321.990878,37.998898C323.736719,38.236108,325.785263,38.418438,328.140119,38.292349ZM353.995265,22.940373C354.297516,32.213787,340.084021,46.95709,324.659714,47.413368C322.544855,47.413368,319.820982,46.95709,317.100266,45.895768C315.435626,48.478318,314.380453,50,312.715813,50C310.75208,50,308.179332,45.591432,308.179332,43.917809C308.179332,43.309136,308.179332,42.247815,308.784737,40.726586C306.666269,38.444291,305.156816,35.709346,305.005239,32.518123C304.702536,22.788432,317.554546,10.475283,334.034477,10.019459C341.593475,9.715123,343.712394,13.058741,344.317348,14.579969C351.119814,14.427574,353.843688,18.6842,353.995265,22.940373ZM312.261533,31.452719C312.261533,32.365728,312.41311,32.974401,312.715813,33.431132C314.07775,31.452719,315.738329,29.322819,318.008374,26.740269C320.425936,24.005324,322.847558,21.875423,325.113543,20.357823C325.028732,20.36508,324.943921,20.372791,324.862268,20.379594C324.943921,20.320178,325.028732,20.264844,325.113543,20.205882C315.889906,20.962414,312.261533,29.174506,312.261533,31.300778C312.261533,31.315745,312.261533,31.334341,312.265593,31.349308C312.265593,31.356565,312.265593,31.360194,312.265593,31.367904C312.261533,31.397385,312.261533,31.42732,312.261533,31.452719L312.261533,31.452719Z"
        />
        <path
            id="stroke-disney-s"
            d="M384,57.015163C384,58.69612,383.074491,62.359604,378.14304,62.818337C372.440562,63.429677,342.855075,64.648257,343.009556,68.315841C343.163578,70.14576,351.946949,70.604038,360.113314,71.06277C368.43462,71.521048,381.840939,71.826717,382.303463,85.262985C382.611966,95.795616,378.606024,97.93485,376.755006,98.85186C374.445601,99.917832,366.741761,102.821469,360.73032,102.974076C342.855075,103.581772,335.459738,93.354356,335.305256,88.162522C335.151235,83.582028,339.928664,79.459811,347.941007,79.307204C355.95335,79.154141,368.280138,82.054134,368.43462,85.262985C368.43462,88.009915,363.043863,89.385202,360.576298,89.385202C349.483062,89.690872,350.09639,85.262985,343.780584,85.416048C340.237167,85.568655,335.151235,93.049141,353.180961,92.590409C369.205647,92.132132,374.137098,86.787235,373.982617,84.040305C373.828595,80.223758,362.272835,78.390194,355.644847,78.084524C349.020538,77.778854,339.003155,77.778854,335.613759,75.643264C332.224824,73.503575,332.68367,68.617866,333.917222,64.648257C336.385247,56.251216,353.643486,53.351223,362.889841,53.045553C372.132058,52.739883,383.691497,53.962563,384,57.015163"
        />
        <path
            id="stroke-disney-n"
            d="M426.988331,77.545776C427.139276,87.147892,425.930364,99.797021,417.171048,100.102132C408.865467,100.407242,399.50147,74.193652,397.389141,74.193652C396.331174,74.193652,396.180229,90.499561,395.877888,95.377238C395.575548,100.25446,393.916504,102.847672,391.195889,103C386.967627,103,385.308583,99.03811,385.006243,91.262565C384.855298,83.490658,387.420912,56.820084,394.970866,56.667756C401.013173,56.514974,414.000752,84.558772,416.116685,84.558772C418.38041,84.558772,416.717762,78.003669,415.361059,70.841983C412.338104,54.536075,407.508764,46.153946,412.035763,46.001618C415.361059,45.848836,426.3841,56.514974,426.988331,77.545776"
        />
        <path
            id="stroke-disney-e"
            d="M470.397647,56.657141C472.237556,59.239783,473,61.211414,473,61.971441C473,62.730562,472.237556,64.55046,465.042279,64.702193C461.371592,64.85438,455.251041,65.46222,449.588412,65.613954L447.138091,72.295215C452.80072,71.991748,458.00223,71.839562,458.00223,71.839562C461.061136,71.687828,463.668054,71.231721,463.362163,75.026421C463.056273,78.82112,462.901045,80.340268,459.842139,80.492454L444.078729,80.948108C443.61898,82.616272,442.244298,87.170093,441.631604,88.993614C440.865964,91.268712,443.312633,90.813058,446.375648,89.904921C449.588412,88.993614,457.851567,87.474013,461.371592,87.322279C464.887051,87.322279,467.489404,92.788313,465.192941,94.911678C463.206935,96.735199,452.647318,105.692012,441.478659,105.995932C436.735072,106.147666,430.153402,102.049046,430,94.607758C430,90.660872,431.531279,85.351101,433.063015,81.252028C432.603723,80.948108,432.297375,80.492454,432.143973,79.277227C431.684681,76.697755,430.459292,73.659006,434.896989,73.202899C435.356281,73.202899,435.81603,73.051166,436.275323,73.051166L439.94738,65.46222C438.415644,65.1583,437.193908,64.85438,436.122377,64.398273C433.369362,63.186669,431.224932,59.844,431.224932,58.328475C431.071987,55.141163,455.251041,53.165908,460.755245,53.014175C466.72696,52.861988,468.562304,53.925935,470.397647,56.657141"
        />
        <path
            id="stroke-disney-y"
            d="M491.03619,90.364459C510.528923,88.390897,514.795515,66.047739,509.770115,66.199656C509.724678,66.203738,509.67924,66.207366,509.629259,66.215075C506.621289,66.622757,498.678795,75.256639,491.03619,90.364459ZM517.989779,70.759892C518.448699,87.326116,503.367956,102.983559,490.122894,103.287847C488.600734,103.287847,486.924086,103.135476,485.251982,102.679271C480.985391,113.316646,477.177719,125.93121,475.046695,140.067214C474.742263,142.501063,474.587776,145.996064,472.456752,145.996064C470.325728,146.148435,463.319249,141.892487,463.014817,130.491446C462.710385,120.462647,467.12692,106.934765,473.519992,94.319747C471.847888,91.733981,470.934592,88.543267,470.780104,84.743978C470.17124,65.287246,487.07403,51.002954,488.750678,51.002954C489.97295,50.850583,490.57727,56.623888,487.53295,61.33604C483.270902,68.177754,478.240959,77.902265,479.158799,84.135403C488.750678,68.630331,500.478125,56.3196,508.702332,56.015312C514.336595,55.862942,517.685347,62.096533,517.989779,70.759892L517.989779,70.759892Z"
         />


        <path
            id="stroke-my-m"
            d="M74.864271,54C78.572584,54,81.705462,54.866698,84.263819,56.599181C86.821719,58.332121,88.736026,60.65703,90.006743,63.572995C92.718793,60.245622,95.423067,57.817861,98.11865,56.290625C100.813776,54.764304,103.775578,54,107.0036,54C112.084635,54,116.188161,55.655687,119.313262,58.967059C122.436992,62.27889,124,66.696034,124,72.220322L124,103L111.32989,103L111.32989,74.3313C111.32989,71.003013,110.61677,68.378234,109.19236,66.456047C107.767493,64.534774,105.69812,63.572995,102.986069,63.572995C99.105308,63.572995,95.38007,66.06201,91.80944,71.03684L91.80944,103L79.190561,103L79.190561,74.125139C79.190561,70.830679,78.434901,68.249326,76.924496,66.378336C75.413176,64.508718,73.387258,63.572995,70.84674,63.572995C68.786515,63.572995,66.897823,64.165421,65.181121,65.349361C63.463962,66.532843,61.627416,68.429431,59.670568,71.03684L59.670568,103L47,103L47,54.926124L59.670568,54.926124L59.670568,61.669092C61.970482,59.061683,64.305617,57.132182,66.675059,55.878761C69.044043,54.626711,71.773933,54,74.864271,54"
        />
        <polyline id="stroke-my-y" points="144.641332,55 155.974495,80.725501 167.461597,55 181,55 147.923231,127 134.384828,127 149.61519,94.049513 131,55 144.641332,55" />


        <polyline
            id="stroke-today-t"
            points="539.572639,34 552.392948,34 552.392948,52.851582 560,52.851582 560,63.899318 552.392948,63.899318 552.392948,104 539.572639,104 539.572639,63.899318 533,63.899318 533,52.851582 539.572639,52.851582 539.572639,34"
        />
        <path
            id="stroke-today-o"
            d="M591.409448,63.906079C587.465915,63.906079,584.187938,65.273031,581.566462,68.006033C578.944985,70.739486,577.636511,74.237475,577.636511,78.5C577.636511,82.88626,578.931403,86.438439,581.521186,89.155184C584.110969,91.873735,587.388946,93.232559,591.359645,93.232559C595.330343,93.232559,598.635486,91.858832,601.270545,89.109122C603.905604,86.360315,605.227661,82.824393,605.227661,78.5C605.227661,74.176511,603.928242,70.663168,601.342987,67.959971C598.748676,65.258129,595.439006,63.906079,591.409448,63.906079ZM591.196651,52C595.968734,52,600.451051,53.189479,604.643602,55.567534C608.84068,57.94604,612.11413,61.172625,614.468478,65.25C616.822826,69.326472,618,73.728085,618,78.453487C618,83.210047,616.813771,87.657723,614.44584,91.796062C612.077909,95.935304,608.849735,99.17047,604.761319,101.502011C600.672903,103.834004,596.167948,105,591.246455,105C583.997779,105,577.813087,102.428666,572.687852,97.285999C567.562617,92.143783,565,85.897439,565,78.546062C565,70.670393,567.897659,64.107938,573.68845,58.85689C578.763882,54.285931,584.604476,52,591.196651,52L591.196651,52Z"
        />
        <path
            id="stroke-today-d"
            d="M651.644533,63.187903C647.671024,63.187903,644.372002,64.586498,641.742879,67.382775C639.113756,70.179508,637.801489,73.765778,637.801489,78.140671C637.801489,82.54709,639.136698,86.172197,641.811705,89.015535C644.486711,91.859786,647.776556,93.281227,651.690416,93.281227C655.723574,93.281227,659.068479,91.882632,661.72972,89.085899C664.386373,86.289623,665.716994,82.625678,665.716994,78.094066C665.716994,73.657034,664.386373,70.062996,661.72972,67.312411C659.068479,64.563196,655.709809,63.187903,651.644533,63.187903ZM665.152627,33L678,33L678,103.687304L665.152627,103.687304L665.152627,98.296248C662.642801,100.672169,660.128387,102.383289,657.604796,103.429608C655.081205,104.476384,652.34655,105,649.400831,105C642.784434,105,637.067353,102.445428,632.240412,97.335827C627.413471,92.226683,625,85.87475,625,78.281398C625,70.406134,627.335469,63.953681,632.006406,58.922211C636.672756,53.891199,642.348541,51.375464,649.024587,51.375464C652.094191,51.375464,654.980261,51.953909,657.673621,53.109429C660.37157,54.26632,662.863042,56.000286,665.152627,58.313153L665.152627,33L665.152627,33Z"
        />
        <path
            id="stroke-today-a"
            d="M712.642226,63.674866C708.669062,63.674866,705.370325,65.057173,702.746018,67.820882C700.117123,70.585043,698.804969,74.129546,698.804969,78.453487C698.804969,82.808587,700.140062,86.391474,702.814837,89.201697C705.489612,92.012823,708.779172,93.417709,712.688106,93.417709C716.725502,93.417709,720.070118,92.035403,722.726541,89.271242C725.387552,86.507532,726.71347,82.88626,726.71347,78.407425C726.71347,74.022068,725.387552,70.469889,722.726541,67.751338C720.070118,65.034142,716.70715,63.674866,712.642226,63.674866ZM726.149152,53.296957L739,53.296957L739,103.702592L726.149152,103.702592L726.149152,98.374323C723.644131,100.722573,721.125346,102.413764,718.606562,103.447897C716.083189,104.482482,713.348771,105,710.403307,105C703.787483,105,698.066309,102.47518,693.239785,97.425088C688.413262,92.375447,686,86.097492,686,78.592575C686,70.80903,688.335267,64.431725,693.0058,59.458855C697.676333,54.486435,703.347039,52,710.027095,52C713.096434,52,715.977666,52.571709,718.675381,53.713771C721.368508,54.857188,723.859765,56.570959,726.149152,58.85689L726.149152,53.296957L726.149152,53.296957Z"
        />
        <polyline id="stroke-today-y" points="746,53 759.06297,53 772.294819,84.698813 786.895951,53 800,53 768.091117,122 754.886654,122 765.366241,99.74982 746,53" />


        <g id="star_1" transform="translate(20.723729,25.5) scale(1.420732,1.420732)">
            <path
                id="star_1_path"
                d="M32.944988,22.848221C33.166588,23.11831,33.399971,23.374804,33.645136,23.619062C37.32714,27.282487,43.80067,28.137618,56,29C31.806173,31.075971,30.075971,32.80572,28,57C25.924029,32.80572,24.19428,31.075971,0,29C24.19428,26.924029,25.924029,25.202437,28,1C28.818425,10.712788,29.535792,16.848253,31.620373,20.831162C31.620373,20.831162,32.139253,21.975416,32.944988,22.848221"
                transform="translate(-28,-29)"
            />
        </g>
        
        <g id="star_2" transform="translate(188,145.996064) scale(1.61077,1.61077)">
            <path
                id="star_2_path"
                d="M191.708886,123.386081C191.874952,123.588487,192.049758,123.780772,192.233765,123.964316C194.995246,126.711967,199.850265,127.353223,209,128C190.854635,129.55668,189.556927,130.854373,188.00023,149C186.443073,130.854373,185.145825,129.55668,167,128C185.145825,126.44286,186.443073,125.152067,188.00023,107C188.613893,114.284747,189.152112,118.886246,190.71525,121.873562C190.71525,121.873562,191.104424,122.731485,191.708886,123.386081"
                transform="translate(-188,-128)"
            />
        </g>

        <g id="star_3" transform="translate(830.97033,20) scale(1.903466,1.903466)">
            <path
                id="star_3_path"
                d="M825.709629,16.386172C825.873389,16.588583,826.050796,16.781442,826.232752,16.964294C828.993935,19.712076,833.852161,20.353423,843,20.999773C824.854435,22.556743,823.557998,23.854446,822.002274,42C820.442002,23.854446,819.145565,22.556743,801,20.999773C819.145565,19.443257,820.442002,18.151922,822.002274,0C822.611827,7.284967,823.153146,11.885831,824.713419,14.873778C824.713419,14.873778,825.104625,15.731635,825.709629,16.386172"
                transform="translate(-822,-21)"
            />
        </g>
    </g>

</svg>
