<?xml version="1.0" encoding="UTF-8"?>
<svg width="861px" height="796px" viewBox="0 0 861 796" version="1.1" xmlns="http://www.w3.org/2000/svg" xmlns:xlink="http://www.w3.org/1999/xlink">
    <!-- Generator: Sketch 59 (86127) - https://sketch.com -->
    <title>Artboard</title>
    <desc>Created with Sketch.</desc>
    <g id="Artboard" stroke="none" stroke-width="1" fill="none" fill-rule="evenodd">
        <g id="blank_canvas">
            <path d="M265.835063,30.66 C295.045063,4.66 340.895063,-0.67 382.635063,1.4 C513.725063,7.92 632.055063,71.2 734.415063,142.79 C771.475063,168.7 807.955063,196.63 832.005063,232.32 C881.005063,304.97 866.445063,405.61 798.365063,465.46 C775.195063,485.82 747.115063,501.46 718.285063,515.27 C667.025063,539.87 611.715063,559.62 553.535063,565.27 C512.055063,569.27 470.055063,566.02 428.805063,560.43 C313.575063,544.77 200.485063,510.21 105.655063,451.09 C64.0750635,425.16 24.8850635,392.92 7.74506349,350.99 C-9.39493651,309.06 1.57506349,255.86 44.0350635,230.99 C61.5950635,220.72 82.5950635,216.08 103.145063,211.72 C133.405063,205.31 164.145063,198.99 191.445063,185.96 C219.655063,172.5 253.045063,146.47 247.445063,116.67 C241.485063,84.74 236.665063,56.66 265.835063,30.66 Z" id="Path" fill="#FF6347" fill-rule="nonzero" opacity="0.1"></path>
            <path d="M524.95,669.89 C524.95,669.89 550.01,625.5 587.74,612.71 C603.602163,607.445833 617.32899,597.178784 626.86,583.45 C631.334393,576.898058 635.197299,569.948846 638.4,562.69" id="Path" stroke="#535461" stroke-width="2"></path>
            <path d="M662.14,554.48 C657.84,558.66 637.81,562.97 637.81,562.97 C637.81,562.97 642.72,543.08 647.02,538.91 C651.319537,534.734727 658.189727,534.835463 662.365,539.135 C666.540272,543.434537 666.439537,550.304727 662.14,554.48 L662.14,554.48 Z" id="Path" fill="#FF6347" fill-rule="nonzero"></path>
            <path d="M650.81,590.47 C644.93,591.64 625.81,584.38 625.81,584.38 C625.81,584.38 640.75,570.38 646.62,569.18 C652.499071,568.011918 658.211917,571.830929 659.38,577.71 C660.548082,583.589071 656.729071,589.301918 650.85,590.47 L650.81,590.47 Z" id="Path" fill="#FF6347" fill-rule="nonzero"></path>
            <path d="M609.56,629.41 C603.89,627.41 591.02,611.51 591.02,611.51 C591.02,611.51 611.02,606.95 616.66,608.91 C620.404435,610.114854 623.203512,613.251929 623.975549,617.108926 C624.747585,620.965923 623.371652,624.93869 620.379466,627.491981 C617.387281,630.045272 613.247534,630.779145 609.56,629.41 L609.56,629.41 Z" id="Path" fill="#FF6347" fill-rule="nonzero"></path>
            <path d="M571.71,651.85 C565.8,650.85 550.42,637.34 550.42,637.34 C550.42,637.34 569.33,629.46 575.24,630.44 C579.094251,631.038587 582.330614,633.659909 583.716694,637.305775 C585.102774,640.95164 584.42499,645.060939 581.942116,648.068863 C579.458985,651.076788 575.552409,652.520409 571.71,651.85 L571.71,651.85 Z" id="Path" fill="#FF6347" fill-rule="nonzero"></path>
            <path d="M609.07,568.84 C609.07,574.84 619.91,592.21 619.91,592.21 C619.91,592.21 630.77,574.84 630.77,568.85 C630.77,562.85771 625.91229,558 619.92,558 C613.92771,558 609.07,562.85771 609.07,568.85 L609.07,568.84 Z" id="Path" fill="#FF6347" fill-rule="nonzero"></path>
            <path d="M565.14,595.64 C566.94,601.36 582.48,614.7 582.48,614.7 C582.48,614.7 587.64,594.87 585.85,589.15 C584.057836,583.431092 577.968909,580.247837 572.25,582.040001 C566.531092,583.832165 563.347836,589.921092 565.14,595.64 Z" id="Path" fill="#FF6347" fill-rule="nonzero"></path>
            <path d="M526.02,627.54 C526.82,633.48 539.89,649.26 539.89,649.26 C539.89,649.26 548.33,630.59 547.53,624.65 C546.731948,618.710178 541.269822,614.54195 535.33,615.340001 C529.390178,616.138052 525.221949,621.600178 526.02,627.54 L526.02,627.54 Z" id="Path" fill="#FF6347" fill-rule="nonzero"></path>
            <path d="M662.14,554.48 C657.84,558.66 637.81,562.97 637.81,562.97 C637.81,562.97 642.72,543.08 647.02,538.91 C651.319537,534.734727 658.189727,534.835463 662.365,539.135 C666.540272,543.434537 666.439537,550.304727 662.14,554.48 L662.14,554.48 Z" id="Path" fill="#000000" fill-rule="nonzero" opacity="0.25"></path>
            <path d="M650.81,590.47 C644.93,591.64 625.81,584.38 625.81,584.38 C625.81,584.38 640.75,570.38 646.62,569.18 C652.499071,568.011918 658.211917,571.830929 659.38,577.71 C660.548082,583.589071 656.729071,589.301918 650.85,590.47 L650.81,590.47 Z" id="Path" fill="#000000" fill-rule="nonzero" opacity="0.25"></path>
            <path d="M609.56,629.41 C603.89,627.41 591.02,611.51 591.02,611.51 C591.02,611.51 611.02,606.95 616.66,608.91 C620.404435,610.114854 623.203512,613.251929 623.975549,617.108926 C624.747585,620.965923 623.371652,624.93869 620.379466,627.491981 C617.387281,630.045272 613.247534,630.779145 609.56,629.41 L609.56,629.41 Z" id="Path" fill="#000000" fill-rule="nonzero" opacity="0.25"></path>
            <path d="M571.71,651.85 C565.8,650.85 550.42,637.34 550.42,637.34 C550.42,637.34 569.33,629.46 575.24,630.44 C579.094251,631.038587 582.330614,633.659909 583.716694,637.305775 C585.102774,640.95164 584.42499,645.060939 581.942116,648.068863 C579.458985,651.076788 575.552409,652.520409 571.71,651.85 L571.71,651.85 Z" id="Path" fill="#000000" fill-rule="nonzero" opacity="0.25"></path>
            <path d="M609.07,568.84 C609.07,574.84 619.91,592.21 619.91,592.21 C619.91,592.21 630.77,574.84 630.77,568.85 C630.77,562.85771 625.91229,558 619.92,558 C613.92771,558 609.07,562.85771 609.07,568.85 L609.07,568.84 Z" id="Path" fill="#000000" fill-rule="nonzero" opacity="0.25"></path>
            <path d="M565.14,595.64 C566.94,601.36 582.48,614.7 582.48,614.7 C582.48,614.7 587.64,594.87 585.85,589.15 C584.057836,583.431092 577.968909,580.247837 572.25,582.040001 C566.531092,583.832165 563.347836,589.921092 565.14,595.64 Z" id="Path" fill="#000000" fill-rule="nonzero" opacity="0.25"></path>
            <path d="M526.02,627.54 C526.82,633.48 539.89,649.26 539.89,649.26 C539.89,649.26 548.33,630.59 547.53,624.65 C546.731948,618.710178 541.269822,614.54195 535.33,615.340001 C529.390178,616.138052 525.221949,621.600178 526.02,627.54 L526.02,627.54 Z" id="Path" fill="#000000" fill-rule="nonzero" opacity="0.25"></path>
            <path d="M526.39,668.99 C526.39,668.99 531.31,618.25 560.63,591.27 C572.997024,580.026627 581.383356,565.075095 584.53,548.66 C585.969386,540.852552 586.685753,532.929006 586.6705,524.99" id="Path" stroke="#535461" stroke-width="2"></path>
            <path d="M605.04,507.91 C602.8,513.47 586.24,525.53 586.24,525.53 C586.24,525.53 582.68,505.35 584.92,499.8 C586.300441,496.107588 589.574954,493.454388 593.473355,492.86958 C597.371755,492.284771 601.280641,493.860371 603.683753,496.985203 C606.086866,500.110035 606.606083,504.292417 605.04,507.91 L605.04,507.91 Z" id="Path" fill="#FF6347" fill-rule="nonzero"></path>
            <path d="M609.27,545.4 C604.37,548.85 583.91,549.97 583.91,549.97 C583.91,549.97 591.91,531.1 596.78,527.65 C599.950732,525.418876 604.0709,525.048799 607.588475,526.679171 C611.106051,528.309544 613.486632,531.692675 613.833475,535.554171 C614.180319,539.415668 612.440732,543.168876 609.27,545.4 Z" id="Path" fill="#FF6347" fill-rule="nonzero"></path>
            <path d="M587.34,597.72 C581.34,598.22 563.14,588.86 563.14,588.86 C563.14,588.86 579.55,576.6 585.48,576.09 C591.452959,575.587421 596.70242,580.022041 597.204999,585.995 C597.707578,591.967959 593.272959,597.21742 587.3,597.72 L587.34,597.72 Z" id="Path" fill="#FF6347" fill-rule="nonzero"></path>
            <path d="M561.83,633.57 C556.03,635.07 536.49,628.93 536.49,628.93 C536.49,628.93 550.58,614.06 556.38,612.56 C560.161551,611.497621 564.221996,612.562032 566.996069,615.342912 C569.770142,618.123793 570.824598,622.186834 569.752953,625.96577 C568.681309,629.744706 565.650929,632.649355 561.83,633.56 L561.83,633.57 Z" id="Path" fill="#FF6347" fill-rule="nonzero"></path>
            <path d="M562.35,542.53 C564.77,548.01 581.73,559.53 581.73,559.53 C581.73,559.53 584.62,539.25 582.19,533.77 C579.694058,528.412329 573.36899,526.038067 567.964067,528.429964 C562.559143,530.82186 560.063043,537.099844 562.35,542.55 L562.35,542.53 Z" id="Path" fill="#FF6347" fill-rule="nonzero"></path>
            <path d="M533.05,584.84 C537,589.34 556.62,595.24 556.62,595.24 C556.62,595.24 553.31,575.02 549.35,570.52 C546.813152,567.530843 542.861052,566.142749 539.012198,566.889058 C535.163343,567.635367 532.016471,570.399981 530.780688,574.120666 C529.544906,577.841351 530.412454,581.939309 533.05,584.84 L533.05,584.84 Z" id="Path" fill="#FF6347" fill-rule="nonzero"></path>
            <path d="M510.21,629.86 C513.35,634.97 531.69,644.09 531.69,644.09 C531.69,644.09 531.84,623.61 528.69,618.5 C526.660732,615.197079 523.023523,613.227657 519.148476,613.333595 C515.273428,613.439533 511.749254,615.604736 509.903475,619.013595 C508.057697,622.422453 508.170731,626.55708 510.2,629.86 L510.21,629.86 Z" id="Path" fill="#FF6347" fill-rule="nonzero"></path>
            <ellipse id="Oval" fill="#FF6347" fill-rule="nonzero" opacity="0.1" cx="383.88" cy="775.93" rx="118.88" ry="19.93"></ellipse>
            <ellipse id="Oval" fill="#FF6347" fill-rule="nonzero" opacity="0.1" cx="448.16" cy="662.06" rx="118.88" ry="19.93"></ellipse>
            <polygon id="Path" fill="#B77B7F" fill-rule="nonzero" points="456.05 399.03 455.94 402.92 449.18 641.44 437.82 641.44 443.39 402.92 443.5 398.43"></polygon>
            <polygon id="Path" fill="#DDA2A6" fill-rule="nonzero" points="521.82 601.09 513.31 601.07 386.87 600.8 380.13 600.79 383.72 589.73 520.92 589.73"></polygon>
            <polygon id="Path" fill="#000000" fill-rule="nonzero" opacity="0.1" points="456.05 399.03 455.94 402.92 443.39 402.92 443.5 398.43"></polygon>
            <rect id="Rectangle" fill="#B77B7F" fill-rule="nonzero" x="439.77" y="393.2" width="21.07" height="7.93"></rect>
            <polygon id="Path" fill="#000000" fill-rule="nonzero" opacity="0.1" points="387.99 589.73 386.87 600.8 380.13 600.79 383.72 589.73"></polygon>
            <polygon id="Path" fill="#DDA2A6" fill-rule="nonzero" points="406.14 393.05 405.79 396.49 377.74 673.13 364.89 672.52 394.45 396.49 394.78 393.35"></polygon>
            <polygon id="Path" fill="#000000" fill-rule="nonzero" opacity="0.1" points="521.82 601.09 513.31 601.07 512.16 589.73 520.92 589.73"></polygon>
            <polygon id="Path" fill="#DDA2A6" fill-rule="nonzero" points="535.27 672.52 522.41 673.13 494.37 396.49 494.02 393.05 505.37 393.35 505.7 396.49"></polygon>
            <rect id="Rectangle" fill="#FFFFFF" fill-rule="nonzero" x="306.6" y="120.3" width="283.36" height="271.7"></rect>
            <path d="M453.81,29.43 L453.81,95.04 L442.76,95.04 L442.76,29.43 C442.673619,27.400037 443.707377,25.48619 445.45239,24.4454492 C447.197403,23.4047084 449.372597,23.4047084 451.11761,24.4454492 C452.862623,25.48619 453.896381,27.400037 453.81,29.43 Z" id="Path" fill="#DDA2A6" fill-rule="nonzero"></path>
            <rect id="Rectangle" fill="#000000" fill-rule="nonzero" opacity="0.1" x="442.75" y="89.07" width="11.06" height="5.97"></rect>
            <path d="M458.15,93.55 L458.15,115.21 L438.479963,115.21 L438.479963,93.55 C438.47733,92.8357524 438.759882,92.1499879 439.264935,91.6449351 C439.769988,91.1398823 440.455752,90.8573299 441.17,90.8599627 L455.48,90.8599627 C456.95783,90.8709879 458.15,92.0721296 458.15,93.55 L458.15,93.55 Z" id="Path" fill="#DDA2A6" fill-rule="nonzero"></path>
            <circle id="Oval" fill="#000000" fill-rule="nonzero" opacity="0.1" cx="448.28" cy="104.61" r="4.18"></circle>
            <circle id="Oval" fill="#B77B7F" fill-rule="nonzero" cx="448.28" cy="103.71" r="4.18"></circle>
            <rect id="Rectangle" fill="#000000" fill-rule="nonzero" opacity="0.1" x="438.42" y="112.53" width="19.73" height="2.69"></rect>
            <rect id="Rectangle" fill="#000000" fill-rule="nonzero" opacity="0.1" x="430.35" y="116.12" width="35.87" height="5.98"></rect>
            <rect id="Rectangle" fill="#DDA2A6" fill-rule="nonzero" x="430.35" y="114.32" width="35.87" height="5.98"></rect>
            <path d="M375.72,385 L526.37,385 C529.959851,385 532.87,387.910149 532.87,391.5 L532.87,392.92 L369.22,392.92 L369.22,391.5 C369.22,387.910149 372.130149,385 375.72,385 Z" id="Path" fill="#000000" fill-rule="nonzero" opacity="0.1"></path>
            <polygon id="Path" fill="#000000" fill-rule="nonzero" opacity="0.1" points="394.78 393.35 406.14 393.05 405.79 396.49 394.45 396.49"></polygon>
            <rect id="Rectangle" fill="#000000" fill-rule="nonzero" opacity="0.1" x="439.77" y="393.2" width="21.07" height="3.29"></rect>
            <polygon id="Path" fill="#000000" fill-rule="nonzero" opacity="0.1" points="505.7 396.49 494.37 396.49 494.02 393.05 505.37 393.35"></polygon>
            <path d="M375.72,386.77 L526.37,386.77 C529.959851,386.77 532.87,389.680149 532.87,393.27 L532.87,394.69 L369.22,394.69 L369.22,393.27 C369.22,391.546093 369.904819,389.892792 371.123806,388.673806 C372.342792,387.454819 373.996093,386.77 375.72,386.77 L375.72,386.77 Z" id="Path" fill="#DDA2A6" fill-rule="nonzero"></path>
            <ellipse id="Oval" fill="#FF6347" fill-rule="nonzero" opacity="0.1" cx="238.18" cy="721.64" rx="44.18" ry="8.64"></ellipse>
            <ellipse id="Oval" fill="#FF6347" fill-rule="nonzero" opacity="0.1" cx="667.28" cy="707.15" rx="32.18" ry="6.29"></ellipse>
            <ellipse id="Oval" fill="#FF6347" fill-rule="nonzero" opacity="0.1" cx="806.77" cy="732.64" rx="32.18" ry="6.29"></ellipse>
            <ellipse id="Oval" fill="#FF6347" fill-rule="nonzero" opacity="0.1" cx="590.78" cy="785.14" rx="32.18" ry="6.29"></ellipse>
            <path d="M256.76,524.3 C256.76,524.3 264,533.77 253.42,548.05 C242.84,562.33 234.13,574.39 237.67,583.3 C237.67,583.3 253.62,556.77 266.61,556.4 C279.6,556.03 271.05,540.26 256.76,524.3 Z" id="Path" fill="#FF6347" fill-rule="nonzero"></path>
            <path d="M256.76,524.3 C257.393413,525.224574 257.891761,526.23474 258.24,527.3 C270.91,542.19 277.66,556.08 265.48,556.43 C254.14,556.75 240.53,577.04 237.27,582.16 C237.374358,582.558084 237.504636,582.948918 237.66,583.33 C237.66,583.33 253.61,556.8 266.6,556.43 C279.59,556.06 271.05,540.26 256.76,524.3 Z" id="Path" fill="#000000" fill-rule="nonzero" opacity="0.1"></path>
            <path d="M270.21,536.36 C270.21,539.69 269.84,542.36 269.38,542.36 C268.92,542.36 268.54,539.66 268.54,536.36 C268.54,533.06 269.01,534.6 269.47,534.6 C269.93,534.6 270.21,532.99 270.21,536.36 Z" id="Path" fill="#FFD037" fill-rule="nonzero"></path>
            <path d="M274.83,540.34 C271.91,541.93 269.36,542.9 269.14,542.49 C268.92,542.08 271.14,540.49 274.03,538.87 C276.92,537.25 275.8,538.44 276.03,538.87 C276.26,539.3 277.75,538.74 274.83,540.34 Z" id="Path" fill="#FFD037" fill-rule="nonzero"></path>
            <path d="M218.55,524.3 C218.55,524.3 211.31,533.77 221.89,548.05 C232.47,562.33 241.18,574.39 237.67,583.3 C237.67,583.3 221.67,556.77 208.67,556.4 C195.67,556.03 204.26,540.26 218.55,524.3 Z" id="Path" fill="#FF6347" fill-rule="nonzero"></path>
            <path d="M218.55,524.3 C217.916587,525.224574 217.418239,526.23474 217.07,527.3 C204.4,542.19 197.65,556.08 209.83,556.43 C221.17,556.75 234.83,577.04 238.04,582.16 C237.934465,582.556549 237.807614,582.947117 237.66,583.33 C237.66,583.33 221.66,556.8 208.66,556.43 C195.66,556.06 204.26,540.26 218.55,524.3 Z" id="Path" fill="#000000" fill-rule="nonzero" opacity="0.1"></path>
            <path d="M205.1,536.36 C205.1,539.69 205.47,542.36 205.93,542.36 C206.39,542.36 206.77,539.66 206.77,536.36 C206.77,533.06 206.3,534.6 205.84,534.6 C205.38,534.6 205.1,532.99 205.1,536.36 Z" id="Path" fill="#FFD037" fill-rule="nonzero"></path>
            <path d="M200.48,540.34 C203.41,541.93 205.95,542.9 206.18,542.49 C206.41,542.08 204.18,540.49 201.28,538.87 C198.38,537.25 199.51,538.44 199.28,538.87 C199.05,539.3 197.56,538.74 200.48,540.34 Z" id="Path" fill="#FFD037" fill-rule="nonzero"></path>
            <ellipse id="Oval" fill="#FF6347" fill-rule="nonzero" opacity="0.1" cx="237.65" cy="644.07" rx="75.65" ry="11.61"></ellipse>
            <path d="M276.59,570.55 L276.23,573.55 L275.72,577.72 L275.51,579.46 L275,583.64 L274.78,585.38 L274.27,589.55 L268.49,636.99 C267.97,641.23 261.05,644.53 252.69,644.53 L222.67,644.53 C214.31,644.53 207.4,641.23 206.88,636.99 L201.09,589.54 L200.58,585.37 L200.37,583.63 L199.85,579.45 L199.64,577.71 L199.13,573.54 L198.77,570.54 C198.48,568.14 202.22,566.12 206.95,566.12 L268.47,566.12 C273.14,566.13 276.89,568.15 276.59,570.55 Z" id="Path" fill="#65617D" fill-rule="nonzero"></path>
            <polygon id="Path" fill="#9D9CB5" fill-rule="nonzero" points="276.22 573.5 275.72 577.68 199.58 577.68 199.08 573.5"></polygon>
            <polygon id="Path" fill="#9D9CB5" fill-rule="nonzero" points="275.5 579.42 275 583.59 200.31 583.59 199.8 579.42"></polygon>
            <polygon id="Path" fill="#9D9CB5" fill-rule="nonzero" points="274.78 585.33 274.27 589.5 201.03 589.5 200.52 585.33"></polygon>
            <circle id="Oval" fill="#FF6347" fill-rule="nonzero" opacity="0.1" cx="179.99" cy="120.5" r="31.5"></circle>
            <circle id="Oval" fill="#FF6347" fill-rule="nonzero" opacity="0.1" cx="128.99" cy="67.5" r="19.5"></circle>
            <circle id="Oval" fill="#FF6347" fill-rule="nonzero" opacity="0.1" cx="109" cy="130" r="12"></circle>
        </g>
        <g id="visibility_off-24px" opacity="0.236467634" transform="translate(375.000000, 172.000000)">
            <path d="M0,0 L152,0 L152,152 L0,152 L0,0 Z M0,0 L152,0 L152,152 L0,152 L0,0 Z M0,0 L152,0 L152,152 L0,152 L0,0 Z M0,0 L152,0 L152,152 L0,152 L0,0 Z" id="Shape"></path>
            <path d="M75.5316053,44.2631579 C92.9777171,44.2631579 107.13688,58.4105263 107.13688,75.8421053 C107.13688,79.9473684 106.315143,83.8 104.861301,87.4 L123.318781,105.842105 C132.863574,97.8842105 140.38563,87.5894737 145,75.8421053 C134.064575,48.1157895 107.07367,28.4736842 75.4683947,28.4736842 C66.6189177,28.4736842 58.148704,30.0526316 50.3105957,32.8947368 L63.9640746,46.5368421 C67.5670759,45.0842105 71.4229195,44.2631579 75.5316053,44.2631579 Z M12.321055,27.0210526 L26.7330605,41.4210526 L29.6407458,44.3263158 C19.1477945,52.4736842 10.9304229,63.3368421 6,75.8421053 C16.9354252,103.568421 43.9263302,123.210526 75.5316053,123.210526 C85.3292406,123.210526 94.684402,121.315789 103.217826,117.905263 L105.872669,120.557895 L124.393361,139 L132.421101,130.978947 L20.3487949,19 L12.321055,27.0210526 Z M47.2764893,61.9473684 L57.0741246,71.7368421 C56.7580719,73.0631579 56.5684402,74.4526316 56.5684402,75.8421053 C56.5684402,86.3263158 65.0386539,94.7894737 75.5316053,94.7894737 C76.9222374,94.7894737 78.3128695,94.6 79.640291,94.2842105 L89.4379263,104.073684 C85.2028195,106.157895 80.5252387,107.421053 75.5316053,107.421053 C58.0854934,107.421053 43.9263302,93.2736842 43.9263302,75.8421053 C43.9263302,70.8526316 45.1905412,66.1789474 47.2764893,61.9473684 L47.2764893,61.9473684 Z M74.5202365,57.0210526 L94.4315598,76.9157895 L94.5579809,75.9052632 C94.5579809,65.4210526 86.0877672,56.9578947 75.5948158,56.9578947 L74.5202365,57.0210526 Z" id="Shape" fill="#000000" fill-rule="nonzero"></path>
        </g>
    </g>
</svg>