<?xml version="1.0" encoding="UTF-8"?>
<svg width="660px" height="281px" viewBox="0 0 660 281" version="1.1" xmlns="http://www.w3.org/2000/svg" xmlns:xlink="http://www.w3.org/1999/xlink">
    <title>hca_logo</title>
    <defs>
        <polygon id="path-1" points="0.215772523 2.39106478 225.399574 2.39106478 225.399574 99.8600149 0.215772523 99.8600149"></polygon>
        <polygon id="path-3" points="0.827128006 1.08652271 319.497971 1.08652271 319.497971 99.8600149 0.827128006 99.8600149"></polygon>
    </defs>
    <g id="Page-1" stroke="none" stroke-width="1" fill="none" fill-rule="evenodd">
        <g id="Group" transform="translate(0.000000, -2.000000)">
            <g id="Group-5" transform="translate(0.000000, 182.278481)">
                <mask id="mask-2" fill="white">
                    <use xlink:href="#path-1"></use>
                </mask>
                <g id="Clip-2"></g>
                <path d="M59.8840676,98.2516754 L59.8840676,93.3873418 C65.1417248,92.9405808 68.2560415,92.5081162 69.2306141,92.1006701 C70.2051867,91.6967982 71.0179298,90.9998511 71.676036,90.0062547 C72.3341422,89.0198064 72.6613972,87.5329859 72.6613972,85.5493671 L72.6613972,51.3667908 L27.4606498,51.3667908 L27.4606498,84.6701415 C27.4606498,87.4221891 28.2949702,89.4594192 29.9743997,90.7854058 C31.650233,92.1149665 34.9803222,92.9798958 39.9682637,93.3873418 L39.9682637,98.2516754 L0,98.2516754 L0,93.3873418 C6.20705625,93.1192852 9.92193986,92.2829486 11.148247,90.8854803 C12.370958,89.491586 12.9823135,87.7116902 12.9823135,85.5493671 L12.9823135,16.3764706 C12.9823135,10.9688757 8.65607439,7.90945644 0,7.18749069 L0,2.39106478 L39.9682637,2.39106478 L39.9682637,7.18749069 C35.2068834,7.59136262 31.9343334,8.31332837 30.1470177,9.34981385 C28.3525096,10.3862993 27.4606498,12.4807148 27.4606498,15.6330603 L27.4606498,45.4230827 L72.6613972,45.4230827 L72.6613972,16.3764706 C72.6613972,10.9688757 68.4034861,7.90945644 59.8840676,7.18749069 L59.8840676,2.39106478 L99.8523313,2.39106478 L99.8523313,7.18749069 C95.0477965,7.59136262 91.7284958,8.3347729 89.8908332,9.41772152 C88.060363,10.4970961 87.1433297,12.5664929 87.1433297,15.6330603 L87.1433297,84.6701415 C87.1433297,87.5079672 88.060363,89.5702159 89.8908332,90.8533135 C91.7284958,92.136411 95.0477965,92.9798958 99.8523313,93.3873418 L99.8523313,98.2516754 L59.8840676,98.2516754" id="Fill-1" fill="#FFFFFE" mask="url(#mask-2)"></path>
                <path d="M142.132957,57.1782576 C142.132957,42.3172003 137.443501,34.8866716 128.064589,34.8866716 C123.346363,34.8866716 119.404918,36.8667163 116.236658,40.8303797 C113.061206,44.7940432 111.338622,50.2409531 111.068906,57.1782576 L142.132957,57.1782576 Z M157.154321,82.6472077 C150.900514,94.2665674 141.726586,100.07446 129.625343,100.07446 C119.563151,100.07446 111.716224,96.7970216 106.070176,90.2457185 C100.431321,83.6944155 97.6118933,75.0594192 97.6118933,64.3407297 C97.6118933,54.8801191 100.474475,46.7526433 106.210428,39.9511541 C111.939189,33.1496649 119.268262,29.7507074 128.197648,29.7507074 C137.033533,29.7507074 143.798002,32.3097543 148.487458,37.4206999 C153.176914,42.5280715 155.521642,49.5225614 155.521642,58.3934475 L155.521642,62.8539092 L111.068906,62.8539092 C111.068906,72.3073716 113.007263,79.6306776 116.88038,84.8059568 C120.753496,89.9883842 126.291658,92.5760238 133.49846,92.5760238 C137.486656,92.5760238 140.895861,91.6967982 143.729674,89.9419211 C146.55989,88.1870439 149.472819,84.7845123 152.464865,79.7379002 L157.154321,82.6472077 L157.154321,82.6472077 Z" id="Fill-3" fill="#FFFFFE" mask="url(#mask-2)"></path>
                <path d="M201.675385,61.2991809 C191.7966,64.1834698 185.068093,67.1535369 181.489866,70.2129561 C177.908042,73.2795235 176.120726,77.0823529 176.120726,81.6321668 C176.120726,88.8375279 179.587471,92.4402085 186.520962,92.4402085 C191.864928,92.4402085 196.780945,89.8489948 201.269013,84.6701415 L201.675385,61.2991809 Z M225.399574,97.0329114 C220.684944,98.7448995 217.013215,99.6026806 214.387983,99.6026806 C207.271086,99.6026806 203.081503,96.3824274 201.812041,89.9419211 L201.405669,89.9419211 C195.374827,96.6075949 188.150044,99.9386448 179.720531,99.9386448 C174.689435,99.9386448 170.553795,98.4196575 167.317207,95.3781087 C164.073427,92.340134 162.455133,88.3192852 162.455133,83.3191363 C162.455133,77.7399851 163.997906,73.4689501 167.076261,70.5167535 C170.161808,67.5717051 175.459023,64.8553984 182.982292,62.3785555 C193.720571,58.8688012 199.909647,56.6171258 201.538729,55.6235294 L201.538729,49.0043187 C201.538729,45.1335815 200.463463,41.7846612 198.31293,38.9718541 C196.158801,36.1590469 192.976156,34.7472822 188.764996,34.7472822 C184.413583,34.7472822 181.216554,35.8087863 179.1811,37.9246463 C179.1811,39.0540581 179.382487,40.3800447 179.788859,41.9097543 C180.198827,43.443038 180.400214,45.0620998 180.400214,46.7740879 C180.400214,48.528965 179.619837,50.0086374 178.055486,51.1988086 C176.491135,52.392554 174.577952,52.9894267 172.312341,52.9894267 C167.960928,52.9894267 165.788818,50.4196575 165.788818,45.2872673 C165.788818,41.2807148 168.324145,37.6887565 173.398396,34.5113924 C178.472646,31.3376024 183.866959,29.7507074 189.577739,29.7507074 C198.866746,29.7507074 205.321941,31.566344 208.950515,35.1904691 C212.575494,38.8145942 214.387983,44.340134 214.387983,51.7742368 L213.978015,85.0775875 C213.978015,87.5079672 214.557005,89.3128816 215.714984,90.4816083 C216.869367,91.6539092 217.908671,92.3186895 218.840089,92.4759494 C219.767911,92.6332092 221.954406,92.7118392 225.399574,92.7118392 L225.399574,97.0329114 L225.399574,97.0329114 Z" id="Fill-4" fill="#FFFFFE" mask="url(#mask-2)"></path>
            </g>
            <path d="M229.185438,280.530156 L229.185438,276.069695 L232.466594,275.730156 C236.754665,275.4621 238.900437,273.278332 238.900437,269.178853 L238.900437,199.376917 C238.900437,197.261057 238.212957,195.166642 236.831052,193.093671 C235.456091,191.024274 231.78953,189.762621 225.838311,189.312286 L225.838311,184.855398 L250.188308,183.365004 L251.104949,184.312137 L251.104949,268.371109 C251.104949,272.963812 254.340967,275.530007 260.816476,276.069695 L260.816476,280.530156 L229.185438,280.530156" id="Fill-6" fill="#FFFFFE"></path>
            <path d="M305.905741,277.620849 C299.382218,280.462249 293.354972,281.881162 287.8276,281.881162 C277.585597,281.881162 272.468192,276.545048 272.468192,265.869248 L272.468192,220.606999 L260.36695,220.606999 L260.36695,214.259419 L272.806236,214.259419 L272.806236,193.518987 L285.177194,193.518987 L285.177194,214.259419 L304.344986,214.259419 L304.344986,220.606999 L285.31385,220.606999 L285.31385,257.82755 C285.31385,264.003574 286.01511,268.199553 287.421228,270.429784 C288.823749,272.660015 291.747467,273.771556 296.188785,273.771556 C300.040324,273.771556 303.280509,273.392703 305.905741,272.624274 L305.905741,277.620849" id="Fill-7" fill="#FFFFFE"></path>
            <g id="Group-14" transform="translate(308.023908, 182.278481)">
                <mask id="mask-4" fill="white">
                    <use xlink:href="#path-3"></use>
                </mask>
                <g id="Clip-9"></g>
                <path d="M45.2151322,98.2516754 L45.2151322,93.7912137 C46.4809977,93.6553984 47.6605542,93.5481757 48.7466092,93.4516754 C53.2778322,93.1836188 55.5470399,90.9998511 55.5470399,86.9003723 L55.5470399,52.5855547 C55.5470399,48.1250931 54.4681773,44.5474311 52.3176445,41.8418466 C50.1635154,39.1398362 47.3872423,37.788831 43.9924213,37.788831 C36.2389953,37.788831 30.4383106,41.166344 26.5903673,47.9213701 L26.5903673,86.2248697 C26.5903673,90.7746835 30.031939,93.2944155 36.9222749,93.7912137 L36.9222749,98.2516754 L4.02056135,98.2516754 L4.02056135,93.7912137 L7.35065063,93.4516754 C11.7452177,93.1407297 13.9460974,90.9533879 13.9460974,86.9003723 L13.9460974,16.6945644 C13.9460974,14.9361132 13.5037637,13.2134028 12.6190964,11.5228593 C11.7380253,9.8358898 10.6124119,8.745793 9.25664125,8.2454207 C7.89727435,7.75577066 5.08503913,7.34832465 0.827128006,7.03380491 L0.827128006,2.57691735 L25.637372,1.08652271 L26.5903673,2.03365599 L26.5903673,41.0984363 L26.8600829,41.0984363 C31.7976775,36.1447506 35.9009517,33.0174237 39.162713,31.7093075 C42.4244743,30.4047655 45.9379702,29.7507074 49.6996045,29.7507074 C62.113717,29.7507074 68.3243695,37.0918838 68.3243695,51.7742368 L68.3243695,86.360685 C68.3243695,90.8211467 71.589727,93.2944155 78.1132496,93.7912137 L78.1132496,98.2516754 L45.2151322,98.2516754" id="Fill-8" fill="#FFFFFE" mask="url(#mask-4)"></path>
                <path d="M136.871704,82.779449 C134.016314,87.9118392 130.128813,92.0792256 125.212795,95.2780343 C120.296778,98.4768429 115.161392,100.07446 109.81383,100.07446 C100.118451,100.07446 92.5268542,96.8649293 87.0426359,90.4458675 C81.5620138,84.0303797 78.8217027,75.416828 78.8217027,64.6087863 C78.8217027,55.0623976 81.8209408,46.8670141 87.8266094,40.0190618 C93.8322779,33.1746835 101.45624,29.7507074 110.702093,29.7507074 C117.542082,29.7507074 122.957972,31.362621 126.946168,34.5828742 C130.934363,37.8031273 132.926663,42.0026806 132.926663,47.1779598 C132.926663,52.8965004 130.617897,55.7557707 125.993173,55.7557707 C123.364344,55.7557707 121.292928,55.1088608 119.775328,53.8007446 C118.254131,52.4926284 117.495331,50.9843634 117.495331,49.2723753 C117.495331,47.4746091 117.768643,45.4481013 118.315267,43.1928518 C118.858294,40.8947133 119.196338,39.2756515 119.332994,38.3285182 C118.016782,36.0339538 115.053506,34.8866716 110.428781,34.8866716 C105.30778,34.8866716 101.103812,37.3956813 97.8204734,42.4172748 C94.5299424,47.4388682 92.8900713,54.6585257 92.8900713,64.069099 C92.8900713,72.5790022 94.781677,79.4591214 98.5684848,84.7058824 C102.3481,89.9526433 107.235348,92.5760238 113.215843,92.5760238 C120.965673,92.5760238 127.352539,88.3407297 132.383635,79.8737156 L136.871704,82.779449" id="Fill-10" fill="#FFFFFE" mask="url(#mask-4)"></path>
                <path d="M179.849994,61.2991809 C169.971209,64.1834698 163.242702,67.1535369 159.664475,70.2129561 C156.082651,73.2795235 154.295335,77.0823529 154.295335,81.6321668 C154.295335,88.8375279 157.758484,92.4402085 164.691975,92.4402085 C170.039537,92.4402085 174.955554,89.8489948 179.443623,84.6701415 L179.849994,61.2991809 Z M203.574183,97.0329114 C198.855957,98.7448995 195.187825,99.6026806 192.558996,99.6026806 C185.445695,99.6026806 181.256112,96.3824274 179.98665,89.9419211 L179.580279,89.9419211 C173.549437,96.6075949 166.321057,99.9386448 157.89514,99.9386448 C152.864044,99.9386448 148.728404,98.4196575 145.48822,95.3781087 C142.248036,92.340134 140.629742,88.3192852 140.629742,83.3191363 C140.629742,77.7399851 142.172516,73.4689501 145.25087,70.5167535 C148.332821,67.5717051 153.633633,64.8553984 161.156901,62.3785555 C171.898777,58.8688012 178.084256,56.6171258 179.713338,55.6235294 L179.713338,49.0043187 C179.713338,45.1335815 178.634476,41.7846612 176.487539,38.9718541 C174.33341,36.1590469 171.150765,34.7472822 166.936009,34.7472822 C162.584596,34.7472822 159.391163,35.8087863 157.352113,37.9246463 C157.352113,39.0540581 157.557096,40.3800447 157.963468,41.9097543 C158.36984,43.443038 158.574824,45.0620998 158.574824,46.7740879 C158.574824,48.528965 157.79085,50.0086374 156.230095,51.1988086 C154.665745,52.392554 152.752562,52.9894267 150.48695,52.9894267 C146.135538,52.9894267 143.963428,50.4196575 143.963428,45.2872673 C143.963428,41.2807148 146.498755,37.6887565 151.573005,34.5113924 C156.647256,31.3376024 162.041569,29.7507074 167.752348,29.7507074 C177.041355,29.7507074 183.49655,31.566344 187.125125,35.1904691 C190.746507,38.8145942 192.558996,44.340134 192.558996,51.7742368 L192.152624,85.0775875 C192.152624,87.5079672 192.731614,89.3128816 193.885997,90.4816083 C195.043976,91.6539092 196.083281,92.3186895 197.014699,92.4759494 C197.938924,92.6332092 200.129015,92.7118392 203.574183,92.7118392 L203.574183,97.0329114 L203.574183,97.0329114 Z" id="Fill-11" fill="#FFFFFE" mask="url(#mask-4)"></path>
                <path d="M245.599478,37.6530156 C239.618983,37.9711095 234.677793,41.2342517 230.783098,47.4495905 L230.783098,86.2248697 C230.783098,88.6552494 231.567072,90.4387193 233.127827,91.5609829 C234.692177,92.6868206 238.194885,93.4302308 243.628756,93.7912137 L243.628756,98.2516754 L208.285217,98.2516754 L208.285217,93.7912137 L211.550574,93.4516754 C215.941545,93.1407297 218.142425,90.9533879 218.142425,86.9003723 L218.142425,45.8269546 C218.142425,39.9725987 214.607352,36.934624 207.537205,36.7058824 L207.537205,32.2489948 L229.833699,30.8979896 L230.783098,31.8451229 L230.783098,41.0984363 L231.124738,41.0984363 C236.968577,33.7143708 243.222384,30.018764 249.886159,30.018764 C252.741549,30.018764 255.071892,30.9337305 256.884381,32.7565153 C258.696871,34.5828742 259.603115,37.0918838 259.603115,40.2871184 C259.603115,42.8568876 258.980971,44.9513031 257.733087,46.5703649 C256.488798,48.1930007 254.79858,49.0043187 252.669625,49.0043187 C250.314108,49.0043187 248.422502,48.407446 246.994807,47.2137007 C245.567113,46.0235294 244.851467,44.5474311 244.851467,42.7854058 C244.851467,41.4379747 245.103202,39.7259866 245.599478,37.6530156" id="Fill-12" fill="#FFFFFE" mask="url(#mask-4)"></path>
                <path d="M304.473011,57.1782576 C304.473011,42.3172003 299.787151,34.8866716 290.404643,34.8866716 C285.693609,34.8866716 281.748568,36.8667163 278.576712,40.8303797 C275.404856,44.7940432 273.685869,50.2409531 273.412557,57.1782576 L304.473011,57.1782576 Z M319.497971,82.6472077 C313.244164,94.2665674 304.06664,100.07446 291.968994,100.07446 C281.910398,100.07446 274.056278,96.7970216 268.417423,90.2457185 C262.774971,83.6944155 259.951947,75.0594192 259.951947,64.3407297 C259.951947,54.8801191 262.818126,46.7526433 268.550482,39.9511541 C274.282839,33.1496649 281.611913,29.7507074 290.541299,29.7507074 C299.377184,29.7507074 306.141652,32.3097543 310.831108,37.4206999 C315.524161,42.5280715 317.865293,49.5225614 317.865293,58.3934475 L317.865293,62.8539092 L273.412557,62.8539092 C273.412557,72.3073716 275.350913,79.6306776 279.22403,84.8059568 C283.097147,89.9883842 288.638904,92.5760238 295.84211,92.5760238 C299.82671,92.5760238 303.243108,91.6967982 306.073324,89.9419211 C308.903541,88.1870439 311.81647,84.7845123 314.804919,79.7379002 L319.497971,82.6472077 L319.497971,82.6472077 Z" id="Fill-13" fill="#FFFFFE" mask="url(#mask-4)"></path>
            </g>
            <path d="M33.97698,67.7396873 L101.992076,67.7396873 C102.772453,67.7396873 103.408982,67.1070737 103.408982,66.3279226 L103.408982,8.51705138 C103.408982,6.8908414 104.732387,5.57915115 106.365065,5.57915115 L131.391082,5.57915115 C133.027357,5.57915115 134.350762,6.8908414 134.350762,8.51705138 L134.350762,156.941772 C134.350762,158.564408 133.027357,159.879672 131.391082,159.879672 L106.365065,159.879672 C104.732387,159.879672 103.408982,158.564408 103.408982,156.941772 L103.408982,97.8049144 C103.408982,97.0257632 102.772453,96.3967238 101.992076,96.3967238 L33.97698,96.3967238 C33.1930065,96.3967238 32.5564776,97.0257632 32.5564776,97.8049144 L32.5564776,156.941772 C32.5564776,158.564408 31.2330727,159.879672 29.600394,159.879672 L4.57437749,159.879672 C2.94169873,159.879672 1.61829392,158.564408 1.61829392,156.941772 L1.61829392,8.51705138 C1.61829392,6.8908414 2.94169873,5.57915115 4.57437749,5.57915115 L29.7981855,5.57915115 C31.322978,5.57915115 32.5564776,6.80506329 32.5564776,8.31690246 L32.5564776,66.3279226 C32.5564776,67.1070737 33.1930065,67.7396873 33.97698,67.7396873" id="Fill-15" fill="#FFFFFE"></path>
            <path d="M295.974579,49.0722264 L275.366559,60.3055845 C274.125585,61.0883098 272.495914,60.7845123 271.643636,59.5693224 C270.759263,58.3183917 268.519804,54.2689501 262.76425,47.2780343 C254.537446,37.2741623 242.477172,32.2489948 228.394965,32.2489948 C201.300357,32.2489948 181.248636,52.7499628 181.248636,82.7294118 C181.35205,113.698883 202.049221,133.206255 228.394965,133.206255 C241.632025,133.206255 252.740173,128.113179 261.441257,119.392405 C265.124954,115.703946 269.628836,108.462844 271.169356,106.204021 C272.035898,104.924497 273.801077,104.720774 275.027787,105.632167 L296.727009,115.979151 C297.992946,116.92271 298.185511,118.684736 297.361761,120.053611 C296.345445,121.733433 291.246039,131.412063 286.724328,136.737453 C273.070043,152.802978 252.775833,162.746091 228.60536,162.746091 C182.635817,162.746091 150.206446,129.131794 150.206446,82.7294118 C150.206446,36.3306031 182.635817,2.71630678 228.60536,2.71630678 C253.770752,2.71630678 275.84084,13.5493671 288.753392,31.9630678 C295.154395,41.0912882 296.259861,44.0434847 296.858952,44.9977662 C297.721928,46.3702159 297.329666,48.2144453 295.974579,49.0722264" id="Fill-16" fill="#FFFFFE"></path>
            <path d="M455.137614,156.18764 L396.821494,7.30543559 C396.411526,6.26537602 395.400991,5.57915115 394.278974,5.57915115 L360.301994,5.57915115 C359.179977,5.57915115 358.173038,6.26537602 357.759474,7.30543559 L299.44695,156.18764 C298.749286,157.963961 300.069094,159.879672 301.98947,159.879672 L328.378449,159.879672 C329.518447,159.879672 330.536174,159.179151 330.931757,158.117647 L343.45016,124.87863 C343.662336,124.317498 344.198171,123.945793 344.798738,123.945793 L368.321539,123.945793 C382.382716,123.202383 391.916265,111.532986 391.883899,97.2545048 C391.880303,96.3502606 391.096329,95.6247208 390.186488,95.6247208 L356.525975,95.6247208 C355.51544,95.6247208 354.821372,94.6239762 355.177397,93.6911392 L375.607458,39.5758749 C376.074965,38.3356664 377.837108,38.3356664 378.301019,39.5758749 L422.87243,158.117647 C423.271609,159.179151 424.28574,159.879672 425.425738,159.879672 L452.595095,159.879672 C454.51547,159.879672 455.831682,157.963961 455.137614,156.18764" id="Fill-17" fill="#FFFFFE"></path>
            <path d="M488.873648,109.313477 L506.441128,109.313477 C513.353041,109.313477 518.95953,114.878332 518.95953,121.747729 L518.95953,139.210722 C518.95953,149.943708 527.723491,160.129859 538.530098,160.101326 C539.191801,160.101326 539.720443,159.532986 539.720443,158.875354 L539.720443,115.203574 C539.720443,100.556962 527.773838,88.676694 513.032978,88.676694 L469.087308,88.6731199 C468.429202,88.6731199 467.857344,89.205659 467.857344,89.8597171 C467.828635,100.599851 478.070637,109.313477 488.873648,109.313477" id="Fill-18" fill="#CF542E"></path>
            <path d="M488.873648,53.9222636 L506.441128,53.9222636 C513.353041,53.9222636 518.95953,48.3538347 518.95953,41.4844378 L518.95953,24.0214445 C518.95953,13.2920328 527.723491,3.10588235 538.530098,3.134415 C539.191801,3.134415 539.720443,3.70275503 539.720443,4.3568131 L539.720443,48.0285927 C539.720443,62.6787789 527.773838,74.5554728 513.032978,74.5554728 L469.087308,74.5590469 C468.429202,74.5590469 467.857344,74.0300819 467.857344,73.3724497 C467.828635,62.6323157 478.070637,53.9222636 488.873648,53.9222636" id="Fill-19" fill="#CF542E"></path>
            <path d="M604.775859,109.313477 L587.204783,109.313477 C580.29287,109.313477 574.693573,114.878332 574.693573,121.747729 L574.693573,139.210722 C574.693573,149.943708 565.926016,160.129859 555.119409,160.101326 C554.461303,160.101326 553.925468,159.532986 553.925468,158.875354 L553.925468,115.203574 C553.925468,100.556962 565.875669,88.676694 580.616529,88.676694 L624.562199,88.6731199 C625.220306,88.6731199 625.795745,89.205659 625.795745,89.8597171 C625.820873,100.599851 615.575274,109.313477 604.775859,109.313477" id="Fill-20" fill="#CF542E"></path>
            <path d="M604.775859,53.9222636 L587.204783,53.9222636 C580.29287,53.9222636 574.693573,48.3538347 574.693573,41.4844378 L574.693573,24.0214445 C574.693573,13.2920328 565.926016,3.10588235 555.119409,3.134415 C554.461303,3.134415 553.925468,3.70275503 553.925468,4.3568131 L553.925468,48.0285927 C553.925468,62.6787789 565.875669,74.5554728 580.616529,74.5554728 L624.562199,74.5590469 C625.220306,74.5590469 625.795745,74.0300819 625.795745,73.3724497 C625.820873,62.6323157 615.575274,53.9222636 604.775859,53.9222636" id="Fill-21" fill="#CF542E"></path>
            <path d="M549.919291,68.7761727 C552.537331,72.6862249 555.813477,75.9422189 559.744133,78.5405808 C562.786526,80.4848846 562.786526,82.7472822 559.74773,84.691586 C555.813477,87.293522 552.537331,90.549516 549.919291,94.4595681 C547.96655,97.4832465 545.686554,97.4796724 543.733812,94.4595681 C541.119369,90.549516 537.843222,87.293522 533.905374,84.691586 C530.862981,82.7508563 530.859385,80.4813105 533.905374,78.5405808 C537.843222,75.9422189 541.119369,72.689799 543.733812,68.7761727 C545.693746,65.7524944 547.962954,65.7453462 549.919291,68.7761727" id="Fill-22" fill="#CF542E"></path>
            <path d="M642.104632,201.020998 L643.759354,201.020998 C645.686185,201.020998 647.248977,200.391958 647.248977,198.872971 C647.248977,197.532688 646.241436,196.639166 644.031464,196.639166 C643.112174,196.639166 642.468671,196.732092 642.104632,196.821445 L642.104632,201.020998 Z M642.009026,209.327178 L638.519403,209.327178 L638.519403,194.676992 C639.898337,194.408935 641.828846,194.230231 644.30725,194.230231 C647.160726,194.230231 648.444054,194.676992 649.547202,195.302457 C650.374562,195.927923 651.018065,197.085927 651.018065,198.519136 C651.018065,200.127476 649.731059,201.378407 647.89248,201.910946 L647.89248,202.093224 C649.363344,202.625763 650.190704,203.69799 650.650349,205.663738 C651.109994,207.897543 651.385781,208.791065 651.753497,209.327178 L647.984409,209.327178 C647.524764,208.791065 647.248977,207.450782 646.789333,205.75309 C646.513546,204.144751 645.594256,203.433507 643.667425,203.433507 L642.009026,203.433507 L642.009026,209.327178 Z M632.727878,201.646463 C632.727878,208.165599 637.692042,213.344453 644.491108,213.344453 C651.109994,213.344453 655.978552,208.165599 655.978552,201.732241 C655.978552,195.213105 651.109994,189.941325 644.402857,189.941325 C637.692042,189.941325 632.727878,195.213105 632.727878,201.646463 Z M659.839569,201.646463 C659.839569,209.952643 653.132431,216.47178 644.402857,216.47178 C635.761534,216.47178 628.866861,209.952643 628.866861,201.646463 C628.866861,193.515413 635.761534,186.992703 644.402857,186.992703 C653.132431,186.992703 659.839569,193.515413 659.839569,201.646463 L659.839569,201.646463 Z" id="Fill-23" fill="#FFFFFE"></path>
        </g>
    </g>
</svg>